<svg width="483" height="495" viewBox="0 0 483 495" fill="none" xmlns="http://www.w3.org/2000/svg">
<g filter="url(#filter0_dd)">
<rect x="22.5387" y="10.3098" width="437.564" height="431.881" rx="9.98119" fill="white"/>
</g>
<line x1="22.5387" y1="89.2434" x2="460.103" y2="89.2434" stroke="#E3E5E9" stroke-width="1.24765"/>
<path d="M98.5379 56.1016H100.826L96.0052 43.7174H93.5773L88.7564 56.1016H90.9747L92.1275 52.9924H97.3676L98.5379 56.1016ZM94.7476 45.9881L96.634 51.0536H92.8611L94.7476 45.9881ZM104.38 56.1016V43.4554H102.353V56.1016H104.38ZM109.045 56.1016V47.5951H107.037V56.1016H109.045ZM106.722 44.6082C106.722 45.3418 107.316 45.9183 108.032 45.9183C108.766 45.9183 109.36 45.3418 109.36 44.6082C109.36 43.8746 108.766 43.2807 108.032 43.2807C107.316 43.2807 106.722 43.8746 106.722 44.6082ZM115.406 49.2021C116.699 49.2021 117.275 50.0405 117.467 50.7916L119.284 50.1278C118.934 48.7654 117.677 47.3331 115.389 47.3331C112.943 47.3331 111.039 49.2195 111.039 51.8396C111.039 54.4247 112.943 56.3636 115.441 56.3636C117.677 56.3636 118.952 54.9138 119.354 53.5863L117.572 52.94C117.38 53.5863 116.769 54.5121 115.441 54.5121C114.166 54.5121 113.066 53.5514 113.066 51.8396C113.066 50.1278 114.166 49.2021 115.406 49.2021ZM122.526 50.9138C122.596 50.0055 123.33 49.0274 124.605 49.0274C126.002 49.0274 126.666 49.9182 126.701 50.9138H122.526ZM126.928 53.1322C126.648 53.9706 126.02 54.6169 124.797 54.6169C123.539 54.6169 122.526 53.6911 122.474 52.3985H128.692C128.71 52.3636 128.745 52.0841 128.745 51.7523C128.745 49.0623 127.207 47.3331 124.587 47.3331C122.439 47.3331 120.448 49.1147 120.448 51.8047C120.448 54.6867 122.491 56.3636 124.797 56.3636C126.841 56.3636 128.186 55.1583 128.64 53.6736L126.928 53.1322ZM142.751 56.1016H145.458L142.663 53.1846L144.358 51.3156V48.6955L141.406 51.8745L139.345 49.7261L139.886 49.3243C140.759 48.6606 141.633 47.7523 141.633 46.5296C141.633 44.6781 140.183 43.4554 138.244 43.4554C136.637 43.4554 134.925 44.5733 134.925 46.6169C134.925 47.7698 135.746 48.7305 136.34 49.3418L136.55 49.5689L136.428 49.6562C135.135 50.6169 134.279 51.4903 134.279 53.0798C134.279 54.7042 135.572 56.3286 137.965 56.3286C139.31 56.3286 140.393 55.6649 141.353 54.6343L142.751 56.1016ZM138 54.4946C136.987 54.4946 136.358 53.7086 136.358 52.94C136.358 52.1365 136.777 51.63 137.371 51.1933L137.79 50.8789L140.078 53.3068L140.061 53.3243C139.432 54.0055 138.821 54.4946 138 54.4946ZM136.917 46.4947C136.917 45.6038 137.615 45.1672 138.262 45.1672C139.065 45.1672 139.642 45.761 139.642 46.4947C139.642 46.9663 139.449 47.4204 138.803 47.9095L138.087 48.4335L137.738 48.0492C137.301 47.5776 136.917 47.0885 136.917 46.4947ZM152.76 56.1016V51.106H157.79V49.1671H152.76V45.6912H158.367V43.7174H150.664V56.1016H152.76ZM162.213 56.1016V47.5951H160.204V56.1016H162.213ZM159.89 44.6082C159.89 45.3418 160.484 45.9183 161.2 45.9183C161.933 45.9183 162.527 45.3418 162.527 44.6082C162.527 43.8746 161.933 43.2807 161.2 43.2807C160.484 43.2807 159.89 43.8746 159.89 44.6082ZM166.233 51.8221C166.233 50.1977 167.211 49.1671 168.539 49.1671C169.866 49.1671 170.774 50.1802 170.774 51.8047C170.774 53.4291 169.849 54.5295 168.521 54.5295C167.141 54.5295 166.233 53.4466 166.233 51.8221ZM172.731 43.4554H170.757V48.5907C170.495 48.0492 169.744 47.368 168.259 47.368C165.866 47.368 164.207 49.3767 164.207 51.8221C164.207 54.3898 165.849 56.3112 168.294 56.3112C169.499 56.3112 170.39 55.7173 170.792 55.0011C170.792 55.3505 170.844 55.9094 170.879 56.1016H172.818C172.801 55.9618 172.731 55.3155 172.731 54.547V43.4554ZM179.16 54.547C177.92 54.547 176.784 53.6038 176.784 51.8396C176.784 50.0754 177.92 49.1671 179.16 49.1671C180.417 49.1671 181.535 50.0754 181.535 51.8396C181.535 53.6212 180.417 54.547 179.16 54.547ZM179.16 47.3331C176.627 47.3331 174.758 49.237 174.758 51.8396C174.758 54.4597 176.627 56.3636 179.16 56.3636C181.71 56.3636 183.579 54.4597 183.579 51.8396C183.579 49.237 181.71 47.3331 179.16 47.3331Z" fill="#2D333A"/>
<circle cx="420.324" cy="41.565" r="2.84133" fill="#979797"/>
<circle cx="420.324" cy="50.0889" r="2.84133" fill="#979797"/>
<circle cx="420.324" cy="58.6128" r="2.84133" fill="#979797"/>
<path d="M154.098 162.48C160.466 162.48 163.73 158.256 164.594 154.768L160.466 153.52C159.858 155.632 157.97 158.16 154.098 158.16C150.45 158.16 147.058 155.504 147.058 150.672C147.058 145.52 150.642 143.088 154.034 143.088C157.97 143.088 159.73 145.488 160.274 147.664L164.434 146.352C163.538 142.672 160.306 138.832 154.034 138.832C147.954 138.832 142.482 143.44 142.482 150.672C142.482 157.904 147.762 162.48 154.098 162.48ZM174.485 158.608C172.405 158.608 170.485 157.072 170.485 154.128C170.485 151.152 172.405 149.648 174.485 149.648C176.565 149.648 178.485 151.152 178.485 154.128C178.485 157.104 176.565 158.608 174.485 158.608ZM174.485 145.776C169.781 145.776 166.229 149.264 166.229 154.128C166.229 158.96 169.781 162.48 174.485 162.48C179.189 162.48 182.741 158.96 182.741 154.128C182.741 149.264 179.189 145.776 174.485 145.776ZM190.356 162V146.256H186.1V162H190.356ZM185.588 141.104C185.588 142.512 186.772 143.696 188.212 143.696C189.684 143.696 190.836 142.512 190.836 141.104C190.836 139.632 189.684 138.448 188.212 138.448C186.772 138.448 185.588 139.632 185.588 141.104ZM199.169 162V138.832H194.913V162H199.169ZM215.887 162V146.256H211.631V162H215.887ZM211.119 141.104C211.119 142.512 212.303 143.696 213.743 143.696C215.215 143.696 216.367 142.512 216.367 141.104C216.367 139.632 215.215 138.448 213.743 138.448C212.303 138.448 211.119 139.632 211.119 141.104ZM219.1 157.616C219.292 159.408 220.924 162.48 225.66 162.48C229.788 162.48 231.772 159.856 231.772 157.296C231.772 154.992 230.204 153.104 227.1 152.464L224.86 151.984C223.996 151.824 223.42 151.344 223.42 150.576C223.42 149.68 224.316 149.008 225.436 149.008C227.228 149.008 227.9 150.192 228.028 151.12L231.58 150.32C231.388 148.624 229.884 145.776 225.404 145.776C222.012 145.776 219.516 148.112 219.516 150.928C219.516 153.136 220.892 154.96 223.932 155.632L226.012 156.112C227.228 156.368 227.708 156.944 227.708 157.648C227.708 158.48 227.036 159.216 225.628 159.216C223.772 159.216 222.844 158.064 222.748 156.816L219.1 157.616ZM247.356 168.08V160.464C248.124 161.52 249.724 162.384 251.9 162.384C256.348 162.384 259.324 158.864 259.324 154.096C259.324 149.424 256.668 145.904 252.06 145.904C249.692 145.904 247.932 146.96 247.228 148.176V146.256H243.1V168.08H247.356ZM255.132 154.128C255.132 156.944 253.404 158.576 251.228 158.576C249.052 158.576 247.292 156.912 247.292 154.128C247.292 151.344 249.052 149.712 251.228 149.712C253.404 149.712 255.132 151.344 255.132 154.128ZM261.734 157.712C261.734 160.176 263.782 162.448 267.142 162.448C269.478 162.448 270.982 161.36 271.782 160.112C271.782 160.72 271.846 161.584 271.942 162H275.846C275.75 161.456 275.654 160.336 275.654 159.504V151.76C275.654 148.592 273.798 145.776 268.806 145.776C264.582 145.776 262.31 148.496 262.054 150.96L265.83 151.76C265.958 150.384 266.982 149.2 268.838 149.2C270.63 149.2 271.494 150.128 271.494 151.248C271.494 151.792 271.206 152.24 270.31 152.368L266.438 152.944C263.814 153.328 261.734 154.896 261.734 157.712ZM268.038 159.28C266.662 159.28 265.99 158.384 265.99 157.456C265.99 156.24 266.854 155.632 267.942 155.472L271.494 154.928V155.632C271.494 158.416 269.83 159.28 268.038 159.28ZM284.978 168.208L294.866 146.256H290.322L286.45 155.472L282.258 146.256H277.49L284.178 160.016L280.466 168.208H284.978ZM301.7 162V146.256H297.444V162H301.7ZM296.932 141.104C296.932 142.512 298.116 143.696 299.556 143.696C301.028 143.696 302.18 142.512 302.18 141.104C302.18 139.632 301.028 138.448 299.556 138.448C298.116 138.448 296.932 139.632 296.932 141.104ZM310.512 152.944C310.512 151.12 311.6 149.68 313.456 149.68C315.504 149.68 316.368 151.056 316.368 152.816V162H320.624V152.08C320.624 148.624 318.832 145.84 314.928 145.84C313.232 145.84 311.344 146.576 310.384 148.208V146.256H306.256V162H310.512V152.944ZM323.824 162.864C324.272 165.872 327.152 168.56 331.472 168.56C337.392 168.56 339.728 164.624 339.728 160.304V146.256H335.632V148.112C335.088 147.056 333.648 145.968 331.152 145.968C326.832 145.968 323.824 149.488 323.824 153.648C323.824 158.064 326.96 161.296 331.152 161.296C333.424 161.296 334.896 160.304 335.536 159.28V160.432C335.536 163.472 334.032 164.816 331.344 164.816C329.328 164.816 327.952 163.568 327.664 161.84L323.824 162.864ZM331.888 157.648C329.68 157.648 328.112 156.112 328.112 153.648C328.112 151.216 329.776 149.68 331.888 149.68C333.936 149.68 335.6 151.216 335.6 153.648C335.6 156.08 334.064 157.648 331.888 157.648Z" fill="#2D333A"/>
<path d="M116.021 202.168V199.984H102.293V202.168H107.981V217H110.333V202.168H116.021ZM120.492 210.208C120.54 208.504 121.452 207.16 123.18 207.16C125.196 207.16 125.868 208.456 125.868 210.064V217H128.124V209.68C128.124 207.112 126.756 205.12 123.996 205.12C122.676 205.12 121.332 205.576 120.492 206.8V199.624H118.236V217H120.492V210.208ZM134.005 217V205.456H131.773V217H134.005ZM131.269 201.088C131.269 201.976 131.989 202.696 132.877 202.696C133.789 202.696 134.509 201.976 134.509 201.088C134.509 200.176 133.789 199.456 132.877 199.456C131.989 199.456 131.269 200.176 131.269 201.088ZM136.823 214C137.015 215.32 138.359 217.36 141.527 217.36C144.383 217.36 145.751 215.416 145.751 213.784C145.751 212.08 144.647 210.808 142.559 210.352L140.687 209.944C139.799 209.752 139.367 209.248 139.367 208.552C139.367 207.76 140.135 207.016 141.287 207.016C143.111 207.016 143.591 208.336 143.687 208.936L145.679 208.192C145.439 207.16 144.455 205.096 141.287 205.096C139.031 205.096 137.183 206.776 137.183 208.744C137.183 210.376 138.263 211.6 140.063 211.984L142.031 212.416C142.991 212.632 143.519 213.184 143.519 213.904C143.519 214.72 142.823 215.44 141.551 215.44C139.919 215.44 139.007 214.48 138.863 213.28L136.823 214ZM159.723 207.184C161.691 207.184 162.531 208.504 162.819 209.632L164.859 208.768C164.379 207.016 162.795 205.096 159.723 205.096C156.435 205.096 153.915 207.616 153.915 211.216C153.915 214.72 156.387 217.36 159.747 217.36C162.747 217.36 164.403 215.416 164.955 213.76L162.963 212.896C162.699 213.808 161.907 215.272 159.747 215.272C157.875 215.272 156.219 213.856 156.219 211.216C156.219 208.528 157.899 207.184 159.723 207.184ZM172.488 215.344C170.568 215.344 168.888 213.904 168.888 211.216C168.888 208.552 170.568 207.112 172.488 207.112C174.408 207.112 176.088 208.552 176.088 211.216C176.088 213.904 174.408 215.344 172.488 215.344ZM172.488 205.096C169.032 205.096 166.584 207.712 166.584 211.216C166.584 214.744 169.032 217.36 172.488 217.36C175.944 217.36 178.392 214.744 178.392 211.216C178.392 207.712 175.944 205.096 172.488 205.096ZM183.595 210.328C183.595 208.576 184.507 207.16 186.283 207.16C188.299 207.16 188.971 208.456 188.971 210.064V217H191.227V209.68C191.227 207.112 189.859 205.12 187.099 205.12C185.755 205.12 184.387 205.672 183.547 207.112V205.456H181.339V217H183.595V210.328ZM197.899 201.808H195.835V203.68C195.835 204.688 195.307 205.456 194.059 205.456H193.435V207.496H195.643V213.832C195.643 215.92 196.891 217.12 198.859 217.12C199.627 217.12 200.203 216.976 200.395 216.904V214.984C200.203 215.032 199.795 215.08 199.507 215.08C198.331 215.08 197.899 214.552 197.899 213.496V207.496H200.395V205.456H197.899V201.808ZM204.813 210.04C204.909 208.552 206.061 207.088 207.957 207.088C209.997 207.088 211.077 208.384 211.125 210.04H204.813ZM211.461 213.04C211.029 214.336 210.093 215.368 208.221 215.368C206.277 215.368 204.789 213.928 204.741 211.864H213.429C213.453 211.72 213.477 211.432 213.477 211.144C213.477 207.544 211.485 205.096 207.933 205.096C205.029 205.096 202.413 207.568 202.413 211.192C202.413 215.104 205.125 217.36 208.221 217.36C210.909 217.36 212.757 215.752 213.405 213.712L211.461 213.04ZM218.673 210.328C218.673 208.576 219.585 207.16 221.361 207.16C223.377 207.16 224.049 208.456 224.049 210.064V217H226.305V209.68C226.305 207.112 224.937 205.12 222.177 205.12C220.833 205.12 219.465 205.672 218.625 207.112V205.456H216.417V217H218.673V210.328ZM232.978 201.808H230.914V203.68C230.914 204.688 230.386 205.456 229.138 205.456H228.514V207.496H230.722V213.832C230.722 215.92 231.97 217.12 233.938 217.12C234.706 217.12 235.282 216.976 235.474 216.904V214.984C235.282 215.032 234.874 215.08 234.586 215.08C233.41 215.08 232.978 214.552 232.978 213.496V207.496H235.474V205.456H232.978V201.808ZM246.837 217V205.456H244.605V217H246.837ZM244.101 201.088C244.101 201.976 244.821 202.696 245.709 202.696C246.621 202.696 247.341 201.976 247.341 201.088C247.341 200.176 246.621 199.456 245.709 199.456C244.821 199.456 244.101 200.176 244.101 201.088ZM249.655 214C249.847 215.32 251.191 217.36 254.359 217.36C257.215 217.36 258.583 215.416 258.583 213.784C258.583 212.08 257.479 210.808 255.391 210.352L253.519 209.944C252.631 209.752 252.199 209.248 252.199 208.552C252.199 207.76 252.967 207.016 254.119 207.016C255.943 207.016 256.423 208.336 256.519 208.936L258.511 208.192C258.271 207.16 257.287 205.096 254.119 205.096C251.863 205.096 250.015 206.776 250.015 208.744C250.015 210.376 251.095 211.6 252.895 211.984L254.863 212.416C255.823 212.632 256.351 213.184 256.351 213.904C256.351 214.72 255.655 215.44 254.383 215.44C252.751 215.44 251.839 214.48 251.695 213.28L249.655 214ZM269.939 217V205.456H267.707V217H269.939ZM267.203 201.088C267.203 201.976 267.923 202.696 268.811 202.696C269.723 202.696 270.443 201.976 270.443 201.088C270.443 200.176 269.723 199.456 268.811 199.456C267.923 199.456 267.203 200.176 267.203 201.088ZM276.093 210.328C276.093 208.576 277.005 207.16 278.781 207.16C280.797 207.16 281.469 208.456 281.469 210.064V217H283.725V209.68C283.725 207.112 282.357 205.12 279.597 205.12C278.253 205.12 276.885 205.672 276.045 207.112V205.456H273.837V217H276.093V210.328ZM292.222 207.184C294.19 207.184 295.03 208.504 295.318 209.632L297.358 208.768C296.878 207.016 295.294 205.096 292.222 205.096C288.934 205.096 286.414 207.616 286.414 211.216C286.414 214.72 288.886 217.36 292.246 217.36C295.246 217.36 296.902 215.416 297.454 213.76L295.462 212.896C295.198 213.808 294.406 215.272 292.246 215.272C290.374 215.272 288.718 213.856 288.718 211.216C288.718 208.528 290.398 207.184 292.222 207.184ZM302.416 217V199.624H300.16V217H302.416ZM313.805 215.608C313.805 216.088 313.853 216.736 313.901 217H316.061C316.013 216.592 315.941 215.776 315.941 214.864V205.456H313.685V212.416C313.685 214.168 312.773 215.368 310.949 215.368C309.053 215.368 308.333 213.976 308.333 212.392V205.456H306.077V212.728C306.077 215.344 307.709 217.36 310.397 217.36C311.741 217.36 313.181 216.808 313.805 215.608ZM321.077 211.192C321.077 208.816 322.421 207.136 324.485 207.136C326.549 207.136 327.797 208.768 327.797 211.144C327.797 213.52 326.525 215.32 324.461 215.32C322.301 215.32 321.077 213.568 321.077 211.192ZM327.821 215.44C327.821 216.136 327.893 216.736 327.941 217H330.125C330.101 216.808 330.005 215.968 330.005 214.864V199.624H327.773V207.088C327.389 206.152 326.285 205.144 324.245 205.144C320.981 205.144 318.773 207.928 318.773 211.192C318.773 214.624 320.861 217.312 324.245 217.312C326.045 217.312 327.269 216.352 327.821 215.248V215.44ZM335.367 210.04C335.463 208.552 336.615 207.088 338.511 207.088C340.551 207.088 341.631 208.384 341.679 210.04H335.367ZM342.015 213.04C341.583 214.336 340.647 215.368 338.775 215.368C336.831 215.368 335.343 213.928 335.295 211.864H343.983C344.007 211.72 344.031 211.432 344.031 211.144C344.031 207.544 342.039 205.096 338.487 205.096C335.583 205.096 332.967 207.568 332.967 211.192C332.967 215.104 335.679 217.36 338.775 217.36C341.463 217.36 343.311 215.752 343.959 213.712L342.015 213.04ZM348.314 211.192C348.314 208.816 349.658 207.136 351.722 207.136C353.786 207.136 355.034 208.768 355.034 211.144C355.034 213.52 353.762 215.32 351.698 215.32C349.538 215.32 348.314 213.568 348.314 211.192ZM355.058 215.44C355.058 216.136 355.13 216.736 355.178 217H357.362C357.338 216.808 357.242 215.968 357.242 214.864V199.624H355.01V207.088C354.626 206.152 353.522 205.144 351.482 205.144C348.218 205.144 346.01 207.928 346.01 211.192C346.01 214.624 348.098 217.312 351.482 217.312C353.282 217.312 354.506 216.352 355.058 215.248V215.44ZM369.432 217V205.456H367.2V217H369.432ZM366.696 201.088C366.696 201.976 367.416 202.696 368.304 202.696C369.216 202.696 369.936 201.976 369.936 201.088C369.936 200.176 369.216 199.456 368.304 199.456C367.416 199.456 366.696 200.176 366.696 201.088ZM375.586 210.328C375.586 208.576 376.498 207.16 378.274 207.16C380.29 207.16 380.962 208.456 380.962 210.064V217H383.218V209.68C383.218 207.112 381.85 205.12 379.09 205.12C377.746 205.12 376.378 205.672 375.538 207.112V205.456H373.33V217H375.586V210.328ZM150.168 253.824L157.68 237.456H155.256L151.8 245.424L148.2 237.456H145.608L150.576 247.728L147.696 253.824H150.168ZM164.385 247.344C162.465 247.344 160.785 245.904 160.785 243.216C160.785 240.552 162.465 239.112 164.385 239.112C166.305 239.112 167.985 240.552 167.985 243.216C167.985 245.904 166.305 247.344 164.385 247.344ZM164.385 237.096C160.929 237.096 158.481 239.712 158.481 243.216C158.481 246.744 160.929 249.36 164.385 249.36C167.841 249.36 170.289 246.744 170.289 243.216C170.289 239.712 167.841 237.096 164.385 237.096ZM180.727 247.608C180.727 248.088 180.775 248.736 180.823 249H182.983C182.935 248.592 182.863 247.776 182.863 246.864V237.456H180.607V244.416C180.607 246.168 179.695 247.368 177.871 247.368C175.975 247.368 175.255 245.976 175.255 244.392V237.456H172.999V244.728C172.999 247.344 174.631 249.36 177.319 249.36C178.663 249.36 180.103 248.808 180.727 247.608ZM193.18 237.336C193.06 237.312 192.748 237.264 192.436 237.264C191.26 237.264 189.82 237.696 188.98 239.472V237.456H186.772V249H189.028V243.216C189.028 240.672 190.3 239.664 192.196 239.664C192.508 239.664 192.844 239.688 193.18 239.736V237.336ZM203.937 249V242.04C203.937 240.312 205.017 239.112 206.625 239.112C208.353 239.112 209.073 240.264 209.073 241.752V249H211.329V242.016C211.329 240.36 212.409 239.112 213.993 239.112C215.697 239.112 216.441 240.24 216.441 241.752V249H218.673V241.512C218.673 238.488 216.705 237.12 214.689 237.12C213.225 237.12 211.737 237.648 210.825 239.304C210.201 237.816 208.809 237.12 207.369 237.12C206.025 237.12 204.585 237.72 203.865 238.992V237.456H201.705V249H203.937ZM223.807 242.04C223.903 240.552 225.055 239.088 226.951 239.088C228.991 239.088 230.071 240.384 230.119 242.04H223.807ZM230.455 245.04C230.023 246.336 229.087 247.368 227.215 247.368C225.271 247.368 223.783 245.928 223.735 243.864H232.423C232.447 243.72 232.471 243.432 232.471 243.144C232.471 239.544 230.479 237.096 226.927 237.096C224.023 237.096 221.407 239.568 221.407 243.192C221.407 247.104 224.119 249.36 227.215 249.36C229.903 249.36 231.751 247.752 232.399 245.712L230.455 245.04ZM237.643 249V242.04C237.643 240.312 238.723 239.112 240.331 239.112C242.059 239.112 242.779 240.264 242.779 241.752V249H245.035V242.016C245.035 240.36 246.115 239.112 247.699 239.112C249.403 239.112 250.147 240.24 250.147 241.752V249H252.379V241.512C252.379 238.488 250.411 237.12 248.395 237.12C246.931 237.12 245.443 237.648 244.531 239.304C243.907 237.816 242.515 237.12 241.075 237.12C239.731 237.12 238.291 237.72 237.571 238.992V237.456H235.411V249H237.643ZM258.281 249V247.32C259.001 248.568 260.321 249.312 262.025 249.312C265.457 249.312 267.401 246.6 267.401 243.168C267.401 239.808 265.601 237.12 262.097 237.12C260.177 237.12 258.833 238.056 258.281 239.088V231.624H256.049V249H258.281ZM265.097 243.168C265.097 245.664 263.753 247.296 261.689 247.296C259.697 247.296 258.257 245.664 258.257 243.168C258.257 240.672 259.697 239.112 261.689 239.112C263.777 239.112 265.097 240.672 265.097 243.168ZM271.799 242.04C271.895 240.552 273.047 239.088 274.943 239.088C276.983 239.088 278.063 240.384 278.111 242.04H271.799ZM278.447 245.04C278.015 246.336 277.079 247.368 275.207 247.368C273.263 247.368 271.775 245.928 271.727 243.864H280.415C280.439 243.72 280.463 243.432 280.463 243.144C280.463 239.544 278.471 237.096 274.919 237.096C272.015 237.096 269.399 239.568 269.399 243.192C269.399 247.104 272.111 249.36 275.207 249.36C277.895 249.36 279.743 247.752 280.391 245.712L278.447 245.04ZM289.811 237.336C289.691 237.312 289.379 237.264 289.067 237.264C287.891 237.264 286.451 237.696 285.611 239.472V237.456H283.403V249H285.659V243.216C285.659 240.672 286.931 239.664 288.827 239.664C289.139 239.664 289.475 239.688 289.811 239.736V237.336ZM291.196 246C291.388 247.32 292.732 249.36 295.9 249.36C298.756 249.36 300.124 247.416 300.124 245.784C300.124 244.08 299.02 242.808 296.932 242.352L295.06 241.944C294.172 241.752 293.74 241.248 293.74 240.552C293.74 239.76 294.508 239.016 295.66 239.016C297.484 239.016 297.964 240.336 298.06 240.936L300.052 240.192C299.812 239.16 298.828 237.096 295.66 237.096C293.404 237.096 291.556 238.776 291.556 240.744C291.556 242.376 292.636 243.6 294.436 243.984L296.404 244.416C297.364 244.632 297.892 245.184 297.892 245.904C297.892 246.72 297.196 247.44 295.924 247.44C294.292 247.44 293.38 246.48 293.236 245.28L291.196 246ZM305.443 242.208C305.491 240.504 306.403 239.16 308.131 239.16C310.147 239.16 310.819 240.456 310.819 242.064V249H313.075V241.68C313.075 239.112 311.707 237.12 308.947 237.12C307.627 237.12 306.283 237.576 305.443 238.8V231.624H303.187V249H305.443V242.208ZM318.956 249V237.456H316.724V249H318.956ZM316.22 233.088C316.22 233.976 316.94 234.696 317.828 234.696C318.74 234.696 319.46 233.976 319.46 233.088C319.46 232.176 318.74 231.456 317.828 231.456C316.94 231.456 316.22 232.176 316.22 233.088ZM325.086 253.56V247.44C325.71 248.472 327.054 249.312 328.83 249.312C332.214 249.312 334.206 246.648 334.206 243.216C334.206 239.856 332.358 237.192 328.902 237.192C327.03 237.192 325.662 238.104 325.038 239.256V237.456H322.854V253.56H325.086ZM331.902 243.216C331.902 245.592 330.582 247.296 328.494 247.296C326.43 247.296 325.062 245.592 325.062 243.216C325.062 240.912 326.43 239.184 328.494 239.184C330.606 239.184 331.902 240.912 331.902 243.216ZM336.549 247.464C336.549 248.4 337.269 249.12 338.205 249.12C339.141 249.12 339.885 248.4 339.885 247.464C339.885 246.528 339.141 245.784 338.205 245.784C337.269 245.784 336.549 246.528 336.549 247.464Z" fill="#636975"/>
<path d="M154.837 410.741V408.767H144.688V410.741H148.706V421.151H150.802V410.741H154.837ZM158.485 416.156C158.52 415.073 159.131 414.234 160.249 414.234C161.524 414.234 161.996 415.073 161.996 416.121V421.151H164.022V415.771C164.022 413.902 163.009 412.4 160.913 412.4C160.022 412.4 159.061 412.715 158.485 413.466V408.505H156.459V421.151H158.485V416.156ZM168.541 421.151V412.645H166.532V421.151H168.541ZM166.218 409.658C166.218 410.391 166.812 410.968 167.528 410.968C168.262 410.968 168.856 410.391 168.856 409.658C168.856 408.924 168.262 408.33 167.528 408.33C166.812 408.33 166.218 408.924 166.218 409.658ZM170.448 418.845C170.552 419.806 171.496 421.413 173.959 421.413C176.124 421.413 177.172 419.981 177.172 418.688C177.172 417.431 176.334 416.452 174.727 416.103L173.435 415.841C172.911 415.736 172.579 415.404 172.579 414.95C172.579 414.426 173.085 413.972 173.801 413.972C174.937 413.972 175.304 414.758 175.373 415.247L177.085 414.758C176.945 413.92 176.177 412.383 173.801 412.383C172.037 412.383 170.675 413.64 170.675 415.125C170.675 416.295 171.461 417.273 172.963 417.605L174.221 417.885C174.902 418.025 175.216 418.374 175.216 418.828C175.216 419.352 174.779 419.806 173.941 419.806C172.858 419.806 172.282 419.125 172.212 418.356L170.448 418.845ZM182.851 418.845C182.955 419.806 183.899 421.413 186.362 421.413C188.527 421.413 189.575 419.981 189.575 418.688C189.575 417.431 188.737 416.452 187.13 416.103L185.838 415.841C185.314 415.736 184.982 415.404 184.982 414.95C184.982 414.426 185.488 413.972 186.204 413.972C187.34 413.972 187.706 414.758 187.776 415.247L189.488 414.758C189.348 413.92 188.58 412.383 186.204 412.383C184.44 412.383 183.078 413.64 183.078 415.125C183.078 416.295 183.864 417.273 185.366 417.605L186.624 417.885C187.305 418.025 187.619 418.374 187.619 418.828C187.619 419.352 187.182 419.806 186.344 419.806C185.261 419.806 184.685 419.125 184.615 418.356L182.851 418.845ZM193.637 421.151V412.645H191.628V421.151H193.637ZM191.314 409.658C191.314 410.391 191.908 410.968 192.624 410.968C193.358 410.968 193.952 410.391 193.952 409.658C193.952 408.924 193.358 408.33 192.624 408.33C191.908 408.33 191.314 408.924 191.314 409.658ZM198.862 410.042H197.028V411.317C197.028 412.068 196.627 412.645 195.718 412.645H195.282V414.444H196.854V418.723C196.854 420.313 197.832 421.256 199.404 421.256C200.137 421.256 200.522 421.116 200.644 421.064V419.387C200.557 419.404 200.225 419.457 199.945 419.457C199.194 419.457 198.862 419.142 198.862 418.391V414.444H200.627V412.645H198.862V410.042ZM204.082 415.963C204.151 415.055 204.885 414.077 206.16 414.077C207.558 414.077 208.221 414.968 208.256 415.963H204.082ZM208.483 418.182C208.204 419.02 207.575 419.666 206.352 419.666C205.095 419.666 204.082 418.741 204.029 417.448H210.247C210.265 417.413 210.3 417.134 210.3 416.802C210.3 414.112 208.763 412.383 206.143 412.383C203.994 412.383 202.003 414.164 202.003 416.854C202.003 419.736 204.047 421.413 206.352 421.413C208.396 421.413 209.741 420.208 210.195 418.723L208.483 418.182ZM218.665 421.151V412.645H216.656V421.151H218.665ZM216.342 409.658C216.342 410.391 216.936 410.968 217.652 410.968C218.385 410.968 218.979 410.391 218.979 409.658C218.979 408.924 218.385 408.33 217.652 408.33C216.936 408.33 216.342 408.924 216.342 409.658ZM220.571 418.845C220.676 419.806 221.619 421.413 224.082 421.413C226.248 421.413 227.296 419.981 227.296 418.688C227.296 417.431 226.458 416.452 224.851 416.103L223.558 415.841C223.034 415.736 222.702 415.404 222.702 414.95C222.702 414.426 223.209 413.972 223.925 413.972C225.06 413.972 225.427 414.758 225.497 415.247L227.209 414.758C227.069 413.92 226.301 412.383 223.925 412.383C222.161 412.383 220.798 413.64 220.798 415.125C220.798 416.295 221.584 417.273 223.087 417.605L224.344 417.885C225.025 418.025 225.34 418.374 225.34 418.828C225.34 419.352 224.903 419.806 224.065 419.806C222.982 419.806 222.405 419.125 222.336 418.356L220.571 418.845ZM245.359 417.885L242.407 408.767H240.223L237.324 417.815L234.843 408.767H232.642L236.153 421.151H238.302L241.306 411.789L244.31 421.151H246.476L249.952 408.767H247.786L245.359 417.885ZM252.293 415.963C252.363 415.055 253.096 414.077 254.371 414.077C255.769 414.077 256.433 414.968 256.467 415.963H252.293ZM256.695 418.182C256.415 419.02 255.786 419.666 254.564 419.666C253.306 419.666 252.293 418.741 252.24 417.448H258.459C258.476 417.413 258.511 417.134 258.511 416.802C258.511 414.112 256.974 412.383 254.354 412.383C252.205 412.383 250.214 414.164 250.214 416.854C250.214 419.736 252.258 421.413 254.564 421.413C256.607 421.413 257.952 420.208 258.406 418.723L256.695 418.182ZM262.465 421.151V420.016C262.954 420.837 263.88 421.361 265.085 421.361C267.565 421.361 269.085 419.422 269.085 416.854C269.085 414.356 267.705 412.418 265.155 412.418C263.845 412.418 262.867 413.029 262.482 413.693V408.505H260.491V421.151H262.465ZM267.041 416.872C267.041 418.549 266.08 419.562 264.753 419.562C263.46 419.562 262.465 418.549 262.465 416.872C262.465 415.177 263.46 414.217 264.753 414.217C266.098 414.217 267.041 415.177 267.041 416.872ZM275.478 416.942V415.142H270.552V416.942H275.478ZM291.418 421.151V408.767H288.571L284.606 418.217L280.588 408.767H277.794V421.151H279.837V412.068L283.663 421.151H285.479L289.339 412.033V421.151H291.418ZM297.964 419.597C296.723 419.597 295.588 418.653 295.588 416.889C295.588 415.125 296.723 414.217 297.964 414.217C299.221 414.217 300.339 415.125 300.339 416.889C300.339 418.671 299.221 419.597 297.964 419.597ZM297.964 412.383C295.431 412.383 293.562 414.287 293.562 416.889C293.562 419.509 295.431 421.413 297.964 421.413C300.514 421.413 302.383 419.509 302.383 416.889C302.383 414.287 300.514 412.383 297.964 412.383ZM306.411 416.243C306.411 415.125 307.022 414.234 308.175 414.234C309.45 414.234 309.922 415.073 309.922 416.121V421.151H311.948V415.771C311.948 413.902 310.952 412.4 308.874 412.4C307.93 412.4 306.917 412.802 306.358 413.78V412.645H304.385V421.151H306.411V416.243ZM315.873 415.963C315.943 415.055 316.676 414.077 317.952 414.077C319.349 414.077 320.013 414.968 320.048 415.963H315.873ZM320.275 418.182C319.995 419.02 319.366 419.666 318.144 419.666C316.886 419.666 315.873 418.741 315.821 417.448H322.039C322.056 417.413 322.091 417.134 322.091 416.802C322.091 414.112 320.554 412.383 317.934 412.383C315.786 412.383 313.794 414.164 313.794 416.854C313.794 419.736 315.838 421.413 318.144 421.413C320.187 421.413 321.532 420.208 321.986 418.723L320.275 418.182ZM326.639 410.042H324.805V411.317C324.805 412.068 324.403 412.645 323.495 412.645H323.058V414.444H324.63V418.723C324.63 420.313 325.608 421.256 327.18 421.256C327.914 421.256 328.298 421.116 328.421 421.064V419.387C328.333 419.404 328.001 419.457 327.722 419.457C326.971 419.457 326.639 419.142 326.639 418.391V414.444H328.403V412.645H326.639V410.042ZM332.537 421.151V412.645H330.529V421.151H332.537ZM330.214 409.658C330.214 410.391 330.808 410.968 331.524 410.968C332.258 410.968 332.852 410.391 332.852 409.658C332.852 408.924 332.258 408.33 331.524 408.33C330.808 408.33 330.214 408.924 330.214 409.658ZM341.5 421.151V419.369H337.046L341.413 414.356V412.645H334.636V414.426H338.863L334.549 419.387V421.151H341.5ZM344.892 415.963C344.962 415.055 345.696 414.077 346.971 414.077C348.368 414.077 349.032 414.968 349.067 415.963H344.892ZM349.294 418.182C349.014 419.02 348.386 419.666 347.163 419.666C345.905 419.666 344.892 418.741 344.84 417.448H351.058C351.076 417.413 351.111 417.134 351.111 416.802C351.111 414.112 349.573 412.383 346.953 412.383C344.805 412.383 342.814 414.164 342.814 416.854C342.814 419.736 344.857 421.413 347.163 421.413C349.207 421.413 350.552 420.208 351.006 418.723L349.294 418.182ZM354.453 416.872C354.453 415.247 355.431 414.217 356.759 414.217C358.086 414.217 358.994 415.23 358.994 416.854C358.994 418.479 358.069 419.579 356.741 419.579C355.361 419.579 354.453 418.496 354.453 416.872ZM360.951 408.505H358.977V413.64C358.715 413.099 357.964 412.418 356.479 412.418C354.086 412.418 352.427 414.426 352.427 416.872C352.427 419.439 354.069 421.361 356.514 421.361C357.719 421.361 358.61 420.767 359.012 420.051C359.012 420.4 359.064 420.959 359.099 421.151H361.038C361.021 421.011 360.951 420.365 360.951 419.597V408.505Z" fill="#2D333A"/>
<rect x="104.937" y="403.834" width="18.4686" height="19.8893" rx="3.74295" fill="#6ADAAB"/>
<path d="M114.995 415.963C114.995 415.63 114.902 415.366 114.715 415.171C114.532 414.972 114.22 414.79 113.777 414.623C113.334 414.457 112.953 414.292 112.632 414.13C112.311 413.963 112.035 413.774 111.803 413.563C111.576 413.348 111.397 413.096 111.267 412.808C111.141 412.519 111.078 412.176 111.078 411.778C111.078 411.092 111.298 410.529 111.736 410.091C112.175 409.652 112.758 409.396 113.485 409.323V408.019H114.459V409.341C115.178 409.443 115.741 409.743 116.147 410.243C116.553 410.738 116.756 411.382 116.756 412.174H114.995C114.995 411.687 114.894 411.323 114.691 411.084C114.492 410.84 114.224 410.718 113.887 410.718C113.554 410.718 113.296 410.814 113.113 411.004C112.93 411.191 112.839 411.451 112.839 411.784C112.839 412.093 112.928 412.341 113.107 412.527C113.286 412.714 113.617 412.905 114.1 413.1C114.587 413.295 114.987 413.48 115.3 413.654C115.613 413.825 115.877 414.02 116.092 414.239C116.307 414.455 116.472 414.702 116.585 414.983C116.699 415.259 116.756 415.582 116.756 415.951C116.756 416.642 116.541 417.202 116.11 417.633C115.68 418.063 115.087 418.317 114.331 418.394V419.606H113.363V418.4C112.53 418.311 111.884 418.016 111.426 417.517C110.971 417.013 110.743 416.345 110.743 415.513H112.504C112.504 415.996 112.618 416.367 112.845 416.627C113.076 416.883 113.407 417.011 113.838 417.011C114.195 417.011 114.478 416.918 114.685 416.731C114.892 416.54 114.995 416.284 114.995 415.963Z" fill="white"/>
<line x1="22.5387" y1="384.741" x2="460.103" y2="384.741" stroke="#E3E5E9" stroke-width="1.24765"/>
<circle cx="62.3173" cy="50.0885" r="17.048" fill="black"/>
<path d="M67.8358 54.0117C68.2972 54.0117 68.899 54.2477 69.3203 55.2507C69.3805 55.3883 69.4206 55.5456 69.4206 55.6833C69.4206 57.3352 65.589 58.8299 63.3623 58.9478C63.2018 58.9478 63.0213 58.9675 62.8608 58.9675C59.5507 58.9675 56.4815 57.2369 54.8967 54.4444C54.1544 53.1267 53.7933 51.6715 53.7933 50.1965C53.7933 48.4856 54.2948 46.7747 55.2778 45.2997C56.0401 44.1198 57.5246 42.5662 60.1325 41.7205C60.7945 41.5042 61.958 41.2092 63.282 41.2092C64.5659 41.2092 65.9902 41.4846 67.234 42.4088C68.9793 43.6871 69.3404 45.0834 69.3404 45.988C69.3404 46.3814 69.2802 46.6763 69.22 46.8533C68.8188 48.2889 67.4747 49.3902 65.91 49.6066C65.5489 49.6459 65.248 49.6852 64.9671 49.6852C63.5428 49.6852 63.0614 49.0952 63.0614 48.4266C63.0614 47.522 63.924 46.46 64.5459 46.46C64.6261 46.46 64.7064 46.4797 64.7665 46.519C64.927 46.6173 65.1276 46.6567 65.3082 46.6567C65.3684 46.6567 65.4085 46.6567 65.4687 46.637C65.9702 46.578 66.231 46.2437 66.231 45.8307C66.231 45.0637 65.3082 44.0214 63.3021 44.0214C62.6602 44.0214 61.9179 44.1198 61.0754 44.3754C59.31 44.9064 58.327 46.1454 57.8255 46.9123C57.1635 47.8956 56.8426 49.0362 56.8426 50.1572C56.8426 51.1208 57.0833 52.0845 57.5647 52.9498C58.6079 54.7787 60.6541 55.9193 62.8608 55.9193C62.9811 55.9193 63.0814 55.9193 63.2018 55.9193C66.0705 55.762 66.7325 54.346 67.3744 54.0707C67.4747 54.051 67.6553 54.0117 67.8358 54.0117Z" fill="white"/>
<defs>
<filter id="filter0_dd" x="0.0810184" y="0.00751352" width="482.479" height="494.585" filterUnits="userSpaceOnUse" color-interpolation-filters="sRGB">
<feFlood flood-opacity="0" result="BackgroundImageFix"/>
<feColorMatrix in="SourceAlpha" type="matrix" values="0 0 0 0 0 0 0 0 0 0 0 0 0 0 0 0 0 0 127 0"/>
<feOffset dy="29.9436"/>
<feGaussianBlur stdDeviation="11.2288"/>
<feColorMatrix type="matrix" values="0 0 0 0 0 0 0 0 0 0 0 0 0 0 0 0 0 0 0.09 0"/>
<feBlend mode="darken" in2="BackgroundImageFix" result="effect1_dropShadow"/>
<feColorMatrix in="SourceAlpha" type="matrix" values="0 0 0 0 0 0 0 0 0 0 0 0 0 0 0 0 0 0 127 0"/>
<feOffset dy="7.21161"/>
<feGaussianBlur stdDeviation="8.75696"/>
<feColorMatrix type="matrix" values="0 0 0 0 0 0 0 0 0 0 0 0 0 0 0 0 0 0 0.25 0"/>
<feBlend mode="normal" in2="effect1_dropShadow" result="effect2_dropShadow"/>
<feBlend mode="normal" in="SourceGraphic" in2="effect2_dropShadow" result="shape"/>
</filter>
</defs>
</svg>
